<?xml version="1.0" encoding="UTF-8" standalone="no"?>
<svg width="13px" height="11px" viewBox="0 0 13 11" version="1.1" xmlns="http://www.w3.org/2000/svg" xmlns:xlink="http://www.w3.org/1999/xlink" xmlns:sketch="http://www.bohemiancoding.com/sketch/ns">
    <!-- Generator: Sketch 3.3.3 (12081) - http://www.bohemiancoding.com/sketch -->
    <title>Imported Layers</title>
    <desc>Created with Sketch.</desc>
    <defs></defs>
    <g id="Page-1" stroke="none" stroke-width="1" fill="none" fill-rule="evenodd" sketch:type="MSPage">
        <g id="Untitled-1" sketch:type="MSLayerGroup">
            <g id="Imported-Layers" sketch:type="MSShapeGroup">
                <path d="M10.673,1.06 C10.503,1.06 10.311,1.159 10.208,1.294 L5.191,8.766 L2.354,6.166 L2.346,6.158 C2.234,6.047 2.116,6.005 2,6.004 C1.884,6.005 1.766,6.047 1.654,6.158 C1.543,6.27 1.501,6.388 1.5,6.504 C1.501,6.619 1.541,6.734 1.647,6.844 L4.936,9.834 L4.6,10.204 L4.936,9.834 L4.945,9.843 L4.952,9.85 L4.961,9.856 L5.001,9.88 L5.139,9.94 C5.2,9.962 5.262,9.98 5.311,9.993 L5.319,9.99 L5.483,9.883 C5.597,9.796 5.717,9.68 5.812,9.585 L11.092,1.715 L11.1,1.704 L11.169,1.511 C11.165,1.37 11.109,1.236 10.943,1.133 L10.682,1.06 L10.673,1.06" id="Fill-1" fill="#A19E9A"></path>
                <path d="M10.208,1.294 C10.311,1.159 10.503,1.06 10.673,1.06 L10.682,1.06 L10.943,1.133 C11.109,1.236 11.165,1.37 11.169,1.511 L11.1,1.704 L11.092,1.715 L5.812,9.585 C5.717,9.68 5.597,9.796 5.483,9.883 L5.319,9.99 L5.311,9.993 C5.262,9.98 5.2,9.962 5.139,9.94 L5.001,9.88 L4.961,9.856 L4.952,9.85 L4.945,9.843 L4.936,9.834 L4.6,10.204 L4.246,10.558 L4.6,10.204 L4.936,9.834 L1.647,6.844 C1.541,6.734 1.501,6.619 1.5,6.504 C1.501,6.388 1.543,6.27 1.654,6.158 C1.766,6.047 1.884,6.005 2,6.004 C2.116,6.005 2.234,6.047 2.346,6.158 L2.354,6.166 L5.191,8.766 L10.208,1.294 M10.685,0.06 L10.682,0.06 C10.162,0.064 9.697,0.313 9.4,0.704 L9.392,0.715 L5.009,7.243 L3.046,5.443 C2.76,5.16 2.383,5.004 2.004,5.004 L2,5.004 L1.996,5.004 C1.614,5.004 1.233,5.162 0.946,5.451 C0.657,5.739 0.499,6.121 0.5,6.504 C0.499,6.888 0.657,7.27 0.946,7.558 L0.955,7.566 L4.264,10.574 C4.477,10.769 4.689,10.839 4.867,10.904 C5.048,10.964 5.189,10.992 5.202,10.995 L5.25,11.004 L5.3,11.004 C5.672,10.99 5.89,10.82 6.092,10.676 C6.289,10.524 6.452,10.359 6.554,10.258 L6.588,10.223 L11.909,2.293 C12.074,2.068 12.169,1.795 12.169,1.511 C12.172,1.044 11.927,0.554 11.457,0.276 C11.213,0.129 10.942,0.06 10.685,0.06" id="Fill-2" fill-opacity="0.25" fill="#000000"></path>
                <path d="M4.6,10.204 L1.3,7.204 C0.9,6.804 0.9,6.204 1.3,5.804 C1.7,5.404 2.3,5.404 2.7,5.804 L5.1,8.004 L9.8,1.004 C10.1,0.604 10.7,0.404 11.2,0.704 C11.7,1.004 11.8,1.604 11.5,2.004 L6.2,9.904 C6,10.104 5.6,10.504 5.3,10.504 C5.3,10.504 4.8,10.404 4.6,10.204" id="Fill-3" fill="#FFFFFF"></path>
            </g>
        </g>
    </g>
</svg>